<svg version="1.2" xmlns="http://www.w3.org/2000/svg" viewBox="0 0 372 275" width="372" height="275"><defs><linearGradient id="P" gradientUnits="userSpaceOnUse"/><linearGradient id="g1" x1="186" y1="266.5" x2="186" y2="9" href="#P"><stop/><stop offset="1" stop-color="#393939"/></linearGradient></defs><style>.a{fill:url(#g1);stroke:#fff;paint-order:stroke fill markers;stroke-linejoin:round;stroke-width:18}.b{fill:#fff}</style><path class="a" d="m105.5 39c0-16.6 13.5-30 30-30h197.5c16.6 0 30 13.4 30 30v197.5c0 16.5-13.4 30-30 30h-197.5c-16.5 0-30-13.5-30-30zm-67.2 205.3c-13 7.5-29.3-1.9-29.3-16.9v-179c0-15 16.3-24.4 29.3-16.9l155 89.5c13 7.5 13 26.3 0 33.8z"/><path class="b" d="m297.1 202.8v-14.8h66.8v14.8z"/><path class="b" d="m310.3 90.9v15.4l-52.9 22.3-4.9-14.9 38.8-15-38.8-15.1 4.9-14.9z"/></svg>