<svg version="1.2" xmlns="http://www.w3.org/2000/svg" viewBox="0 0 1001 258" width="1001" height="258"><defs><linearGradient id="P" gradientUnits="userSpaceOnUse"/><linearGradient id="g1" x1="177" y1="257.5" x2="177" y2="0" href="#P"><stop/><stop offset="1" stop-color="#393939"/></linearGradient></defs><style>.a{fill:url(#g1)}.b{fill:#fff}</style><path class="a" d="m96.5 30c0-16.6 13.5-30 30-30h197.5c16.6 0 30 13.4 30 30v197.5c0 16.5-13.4 30-30 30h-197.5c-16.5 0-30-13.5-30-30zm-67.2 205.3c-13 7.5-29.3-1.9-29.3-16.9v-179c0-15 16.3-24.4 29.3-16.9l155 89.5c13 7.5 13 26.3 0 33.8z"/><path class="b" d="m301.3 81.9v15.4l-52.9 22.3-4.9-14.9 38.8-15-38.8-15.1 4.9-14.9z"/><path class="b" d="m288.1 193.8v-14.8h66.8v14.8z"/><path fill-rule="evenodd" d="m412.9 125.6h-8.6v-19.6h8.6v-2.2c0-20.2 12.4-30.1 35.9-28.9v20.1c-9.1-0.6-12.3 2.2-12.3 10.3v0.7h12.7v19.6h-12.7v57.4h-23.6zm47.3-19.6h23.6v77h-23.6zm-2.2-20.7c0-7.2 5.7-12.9 14.1-12.9 8.3 0 13.9 5.7 13.9 12.9 0 7-5.6 12.7-13.9 12.7-8.4 0-14.1-5.7-14.1-12.7zm74.3 98.8c-20.6 0-34.4-11.5-35.5-26.4h23.3c0.6 5.4 5.4 9 11.9 9 6.1 0 9.2-2.8 9.2-6.2 0-12.4-41.9-3.5-41.9-31.7 0-13.2 11.2-23.9 31.3-23.9 19.9 0 30.9 11 32.4 26.2h-21.8c-0.6-5.2-4.7-8.7-11.3-8.7-5.5 0-8.5 2.2-8.5 5.9 0 12.3 41.6 3.6 42.1 32.3 0 13.4-11.9 23.5-31.2 23.5zm45.7-103.2h23.5v35.4c4.7-6.6 13.2-11.1 23.8-11.1 17.5 0 29.2 12.1 29.2 32.8v45h-23.4v-41.8c0-10.5-5.8-16.3-14.8-16.3-9 0-14.8 5.8-14.8 16.3v41.8h-23.5zm96.7 44.7h-9.4v-19.6h9.4v-18.8h23.6v18.8h15.4v19.6h-15.4v30.9c0 4.5 1.9 6.5 7.2 6.5h8.4v20h-12c-16 0-27.2-6.8-27.2-26.8zm86.5 58.4c-22.6 0-38.9-15.1-38.9-39.6 0-24.4 16-39.6 38.9-39.6 22.5 0 38.4 14.9 38.4 38.4 0 2.2-0.2 4.5-0.4 6.9h-53.4c0.8 10.1 7 14.8 14.6 14.8 6.6 0 10.3-3.4 12.3-7.5h25.1c-3.7 15-17.4 26.6-36.6 26.6zm-15.3-47h29.5c0-8.4-6.6-13.3-14.5-13.3-7.7 0-13.6 4.7-15 13.3zm89.7 45.9h-23.6v-77h23.6v12.9c5.4-8.2 13.8-13.7 24.1-13.7v25h-6.4c-11.2 0-17.7 3.8-17.7 17.1zm141.6-41.7c0-10.1-5.8-15.6-14.8-15.6-9 0-14.7 5.5-14.7 15.6v41.8h-23.5v-41.8c0-10.1-5.8-15.6-14.8-15.6-8.9 0-14.7 5.5-14.7 15.6v41.8h-23.6v-77h23.6v9.6c4.5-6.2 12.4-10.5 22.5-10.5 11.5 0 20.9 5.1 26.2 14.4 5.1-8.1 14.7-14.4 25.9-14.4 19.1 0 31.3 12.2 31.3 32.9v45h-23.4z"/></svg>